<svg id="SvgjsSvg1000" xmlns="http://www.w3.org/2000/svg" version="1.1" xmlns:xlink="http://www.w3.org/1999/xlink" xmlns:svgjs="http://svgjs.com/svgjs" width="93" height="93" viewBox="0 0 93 93"><title>Right Arrow Circular Button. Attribute as Robin Kylander from Flaticon.com</title><desc>Created with Avocode.</desc><defs id="SvgjsDefs1001"></defs><path id="SvgjsPath1007" d="M753.996 808.003C753.996 782.638 774.633 762.003 799.996 762.003C825.361 762.003 845.996 782.638 845.996 808.003C845.996 833.366 825.361 854.003 799.996 854.003C774.633 854.003 753.996 833.366 753.996 808.003ZM842.876 808.003C842.876 784.36 823.641 765.123 799.996 765.123C776.353 765.123 757.115 784.36 757.115 808.003C757.115 831.648 776.3530000000001 850.884 799.996 850.884C823.641 850.884 842.876 831.648 842.876 808.003ZM783.845 802.227C783.845 801.827 783.998 801.429 784.302 801.124C784.91 800.515 785.9010000000001 800.515 786.51 801.124L800.658 815.258L814.806 801.124C815.4150000000001 800.517 816.4060000000001 800.517 817.014 801.124C817.623 801.734 817.623 802.7230000000001 817.014 803.332L801.763 818.564C801.153 819.1759999999999 800.1650000000001 819.1759999999999 799.5550000000001 818.564L784.3040000000001 803.332C783.998 803.025 783.8450000000001 802.627 783.8450000000001 802.227Z " fill="#ffffff" fill-opacity="1" transform="matrix(1,0,0,1,-753,-762)"></path></svg>
