<svg id="SvgjsSvg1014" xmlns="http://www.w3.org/2000/svg" version="1.1" xmlns:xlink="http://www.w3.org/1999/xlink" xmlns:svgjs="http://svgjs.com/svgjs" width="25" height="25" viewBox="0 0 25 25"><title>Shape 6</title><desc>Created with Avocode.</desc><defs id="SvgjsDefs1015"></defs><path id="SvgjsPath1016" d="M790.727 3373.51C789.074 3373.51 787.992 3374.6400000000003 787.992 3376.11C787.992 3377.55 789.039 3378.71 790.659 3378.71C792.38 3378.71 793.427 3377.55 793.427 3376.11C793.393 3374.6400000000003 792.38 3373.51 790.727 3373.51ZM793.259 3397.49V3380.7599999999998H788.128V3397.49ZM796.329 3386.1C796.329 3384.0099999999998 796.262 3382.27 796.193 3380.7599999999998H800.649L800.8870000000001 3383.0899999999997H800.988C801.663 3381.99 803.317 3380.39 806.085 3380.39C809.46 3380.39 811.9920000000001 3382.68 811.9920000000001 3387.6099999999997V3397.49H806.8610000000001V3388.22C806.8610000000001 3386.0699999999997 806.1170000000001 3384.6 804.2610000000001 3384.6C802.844 3384.6 802.0010000000001 3385.5899999999997 801.6290000000001 3386.5499999999997C801.4940000000001 3386.89 801.4600000000002 3387.37 801.4600000000002 3387.8399999999997V3397.49H796.3290000000002Z " fill="#ffffff" fill-opacity="1" transform="matrix(1,0,0,1,-787,-3373)"></path></svg>
