<svg id="SvgjsSvg1017" xmlns="http://www.w3.org/2000/svg" version="1.1" xmlns:xlink="http://www.w3.org/1999/xlink" xmlns:svgjs="http://svgjs.com/svgjs" width="25" height="22" viewBox="0 0 25 22"><title>Shape 8</title><desc>Created with Avocode.</desc><defs id="SvgjsDefs1018"></defs><path id="SvgjsPath1019" d="M836.696 3382.47L837.681 3383.7599999999998C837.681 3383.7599999999998 839.712 3382.16 840.389 3382.9599999999996C841.066 3383.7599999999998 843.651 3393.4499999999994 844.514 3395.24C845.267 3396.7999999999997 847.344 3398.87 849.623 3397.39C851.899 3395.92 859.471 3389.44 860.826 3381.79C862.1800000000001 3374.14 851.715 3375.74 850.606 3382.41C853.377 3380.74 854.856 3383.08 853.438 3385.74C852.023 3388.39 850.73 3390.12 850.053 3390.12C849.377 3390.12 848.857 3388.3399999999997 848.082 3385.24C847.282 3382.04 847.287 3376.2599999999998 843.959 3376.9199999999996C840.8209999999999 3377.5299999999997 836.6959999999999 3382.47 836.6959999999999 3382.47Z " fill="#ffffff" fill-opacity="1" transform="matrix(1,0,0,1,-836,-3376)"></path></svg>
