<svg id="SvgjsSvg1020" xmlns="http://www.w3.org/2000/svg" version="1.1" xmlns:xlink="http://www.w3.org/1999/xlink" xmlns:svgjs="http://svgjs.com/svgjs" width="25" height="17" viewBox="0 0 25 17"><title>Shape 7</title><desc>Created with Avocode.</desc><defs id="SvgjsDefs1021"></defs><path id="SvgjsPath1022" d="M895.154 3388.53C895.154 3388.53 897.421 3388.3500000000004 897.421 3385.52C897.421 3382.68 895.566 3381.3 893.2180000000001 3381.3H885.489V3397.13H893.2180000000001C893.2180000000001 3397.13 897.9350000000001 3397.29 897.9350000000001 3392.46C897.936 3392.46 898.1410000000001 3388.53 895.1540000000001 3388.53ZM888.895 3384.11H893.218C893.218 3384.11 894.2679999999999 3384.11 894.2679999999999 3385.76C894.2679999999999 3387.4100000000003 893.6499999999999 3387.65 892.9479999999999 3387.65H888.8949999999999ZM892.999 3394.32H888.895V3390.09H893.218C893.218 3390.09 894.784 3390.07 894.784 3392.26C894.784 3394.11 893.614 3394.3100000000004 892.999 3394.32ZM904.229 3385.33C898.5160000000001 3385.33 898.5210000000001 3391.41 898.5210000000001 3391.41C898.5210000000001 3391.41 898.129 3397.46 904.229 3397.46C904.229 3397.46 909.311 3397.77 909.311 3393.25H906.698C906.698 3393.25 906.784 3394.95 904.316 3394.95C904.316 3394.95 901.701 3395.14 901.701 3392.2H909.398C909.4 3392.2 910.2420000000001 3385.33 904.229 3385.33ZM906.553 3390.09H901.674C901.674 3390.09 901.994 3387.65 904.288 3387.65C906.58 3387.65 906.553 3390.09 906.553 3390.09ZM907.161 3382.23V3384.18H901.0329999999999V3382.23Z " fill="#ffffff" fill-opacity="1" transform="matrix(1,0,0,1,-885,-3381)"></path></svg>
