<svg id="SvgjsSvg1000" xmlns="http://www.w3.org/2000/svg" version="1.1" xmlns:xlink="http://www.w3.org/1999/xlink" xmlns:svgjs="http://svgjs.com/svgjs" width="42" height="42" viewBox="0 0 42 42"><title>Link 1. Attribute as Freepik from Flaticon.com</title><desc>Created with Avocode.</desc><defs id="SvgjsDefs1001"></defs><path id="SvgjsPath1007" d="M420.244 2681.73C419.242 2680.73 417.605 2680.73 416.60400000000004 2681.73L411.38700000000006 2686.95C409.2490000000001 2685.5299999999997 406.79600000000005 2684.83 404.3330000000001 2684.83C401.0520000000001 2684.83 397.6660000000001 2686.08 395.2710000000001 2688.58L387.5810000000001 2696.27C383.1940000000001 2700.65 382.65400000000005 2707.43 385.94900000000007 2712.4L380.7320000000001 2717.62C379.7320000000001 2718.63 379.7320000000001 2720.25 380.7320000000001 2721.25C381.2320000000001 2721.75 381.88700000000006 2722 382.54300000000006 2722C383.20000000000005 2722 383.85400000000004 2721.75 384.35600000000005 2721.25L389.57200000000006 2716.03C391.71000000000004 2717.4500000000003 394.1790000000001 2718.1600000000003 396.64200000000005 2718.1600000000003C399.81500000000005 2718.1600000000003 403.2010000000001 2716.9 405.70400000000006 2714.4L413.38000000000005 2706.71C417.7660000000001 2702.33 418.30600000000004 2695.55 415.011 2690.58L420.24300000000005 2685.36C421.24500000000006 2684.35 421.24500000000006 2682.73 420.244 2681.73ZM412.008 2697.64C412.008 2699.7 411.207 2701.6299999999997 409.755 2703.08L402.079 2710.77C400.622 2712.23 398.588 2713.03 396.642 2713.03C395.481 2713.03 394.37 2712.7400000000002 393.349 2712.26L397.065 2708.4300000000003C398.066 2707.4300000000003 398.066 2705.8100000000004 397.065 2704.8100000000004C396.172 2703.8 394.549 2703.8 393.548 2704.8100000000004L389.724 2708.6300000000006C389.23199999999997 2707.6100000000006 388.952 2706.5000000000005 388.952 2705.3400000000006C388.952 2703.2800000000007 389.753 2701.350000000001 391.205 2699.9000000000005L398.788 2692.2100000000005C400.24 2690.7500000000005 402.28000000000003 2689.9500000000003 404.333 2689.9500000000003C405.494 2689.9500000000003 406.6 2690.2400000000002 407.622 2690.7200000000003L403.72200000000004 2694.63C402.72 2695.63 402.72 2697.25 403.72200000000004 2698.26C404.22200000000004 2698.76 404.877 2699.01 405.53400000000005 2699.01C406.18500000000006 2699.01 406.84100000000007 2698.76 407.34200000000004 2698.26L411.237 2694.3500000000004C411.72700000000003 2695.3700000000003 412.00800000000004 2696.4800000000005 412.00800000000004 2697.6400000000003Z " fill="#ffffff" fill-opacity="1" transform="matrix(1,0,0,1,-379,-2680)"></path></svg>
