<svg id="SvgjsSvg1008" xmlns="http://www.w3.org/2000/svg" version="1.1" xmlns:xlink="http://www.w3.org/1999/xlink" xmlns:svgjs="http://svgjs.com/svgjs" width="25" height="20" viewBox="0 0 25 20"><title>Shape 2</title><desc>Created with Avocode.</desc><defs id="SvgjsDefs1009"></defs><path id="SvgjsPath1010" d="M714.492 3380.63C713.6089999999999 3381.02 712.66 3381.28 711.664 3381.4C712.681 3380.79 713.462 3379.83 713.829 3378.6800000000003C712.8779999999999 3379.2400000000002 711.824 3379.65 710.702 3379.8700000000003C709.805 3378.9200000000005 708.525 3378.32 707.108 3378.32C704.3889999999999 3378.32 702.184 3380.52 702.184 3383.2400000000002C702.184 3383.63 702.228 3384.0000000000005 702.312 3384.36C698.219 3384.1600000000003 694.591 3382.2000000000003 692.163 3379.2200000000003C691.739 3379.9500000000003 691.496 3380.7900000000004 691.496 3381.7000000000003C691.496 3383.4 692.366 3384.9100000000003 693.687 3385.7900000000004C692.879 3385.7700000000004 692.12 3385.5500000000006 691.457 3385.1800000000003C691.456 3385.2000000000003 691.456 3385.2200000000003 691.456 3385.2400000000002C691.456 3387.6200000000003 693.153 3389.61 695.4060000000001 3390.07C694.993 3390.1800000000003 694.5580000000001 3390.2400000000002 694.109 3390.2400000000002C693.791 3390.2400000000002 693.4830000000001 3390.21 693.182 3390.15C693.809 3392.11 695.6270000000001 3393.53 697.782 3393.57C696.0970000000001 3394.8900000000003 693.974 3395.6800000000003 691.667 3395.6800000000003C691.269 3395.6800000000003 690.8770000000001 3395.65 690.4920000000001 3395.61C692.671 3397 695.2590000000001 3397.82 698.0400000000001 3397.82C707.0970000000001 3397.82 712.0490000000001 3390.32 712.0490000000001 3383.81C712.0490000000001 3383.6 712.0450000000001 3383.39 712.0350000000001 3383.18C712.998 3382.48 713.8320000000001 3381.6099999999997 714.4920000000001 3380.6299999999997Z " fill="#ffffff" fill-opacity="1" transform="matrix(1,0,0,1,-690,-3378)"></path></svg>
